<?xml version="1.0" standalone="no"?>
<svg fill="#000000" version="1.1" id="Layer_1" xmlns="http://www.w3.org/2000/svg" xmlns:xlink="http://www.w3.org/1999/xlink" width="128" height="128" viewBox="796 796 200 200" enable-background="new 796 796 200 200" xml:space="preserve">
<g fill="#000" style="">
	<path d="M986.054,873.01l-81.253-73.615c-4.995-4.527-12.607-4.527-17.603,0l-81.252,73.615c-4.179,3.787-6.563,9.162-6.563,14.801&#10;&#9;&#9;v101.546c0,3.669,2.974,6.643,6.642,6.643h60.928v-80.151c0-5.64,4.572-10.212,10.214-10.212h37.665&#10;&#9;&#9;c5.643,0,10.215,4.572,10.215,10.212V996h60.928c3.668,0,6.642-2.974,6.642-6.643V887.812&#10;&#9;&#9;C992.616,882.172,990.232,876.797,986.054,873.01z" fill="#000" style=""/>
</g>
</svg>